<svg width="18" height="20" xmlns="http://www.w3.org/2000/svg" fill="none">
 <g id="Layer_1">
  <title>Layer 1</title>
  <g id="svg_2" clip-path="url(#clip0)">
   <path id="svg_3" fill="#505F79" d="m17.98524,7.4611c0,-1.1399 -0.366,-2.2107 -1.0647,-3.1433c0.2661,-0.8981 0.3327,-2.038 0.2661,-3.3506c-0.0332,-0.5527 -0.4658,-0.9672 -0.9981,-0.9672c-0.2995,0 -2.8281,0.0345 -4.2921,1.3817c-1.2643,-0.2418 -2.5952,-0.2418 -3.8928,0c-1.4306,-1.3472 -3.9593,-1.3817 -4.292,-1.3817c-0.5324,0 -0.9649,0.4145 -0.9982,0.9672c-0.0998,1.3126 0,2.4525 0.2662,3.3506c-0.6987,0.9672 -1.0647,2.038 -1.0647,3.1433c0,2.418 1.7967,4.5942 4.525,5.6304c-0.0998,0.2073 -0.1664,0.4491 -0.2329,0.6909c-2.8947,-0.3109 -4.2588,-3.0397 -4.3254,-3.1434c-0.2329,-0.5181 -0.8317,-0.7254 -1.3308,-0.449c-0.4991,0.2418 -0.6987,0.8635 -0.4326,1.3817c0.0666,0.1727 1.8965,3.8687 5.9224,4.2832l0,3.1088c0,0.5872 0.4325,1.0363 0.9982,1.0363l5.8225,0c0.5656,0 0.9982,-0.4491 0.9982,-1.0363l0,-4.1105c0,-0.6218 -0.1331,-1.209 -0.366,-1.7271c2.695,-1.0708 4.4917,-3.2125 4.4917,-5.665z"/>
  </g>
 </g>
</svg>